M48
; DRILL file {KiCad 9.0.3} date 2026-07-20T00:37:58-0400
; FORMAT={-:-/ absolute / metric / decimal}
; #@! TF.CreationDate,2026-07-20T00:37:58-04:00
; #@! TF.GenerationSoftware,Kicad,Pcbnew,9.0.3
; #@! TF.FileFunction,Plated,1,2,PTH
FMAT,2
METRIC
; #@! TA.AperFunction,Plated,PTH,ComponentDrill
T1C0.200
; #@! TA.AperFunction,Plated,PTH,ViaDrill
T2C0.300
; #@! TA.AperFunction,Plated,PTH,ComponentDrill
T3C1.000
; #@! TA.AperFunction,Plated,PTH,ComponentDrill
T4C2.700
%
G90
G05
T1
X112.262Y-23.3
X112.262Y-24.7
X112.962Y-22.6
X112.962Y-24.0
X112.962Y-25.4
X113.662Y-23.3
X113.662Y-24.7
X114.362Y-22.6
X114.362Y-24.0
X114.362Y-25.4
X115.062Y-23.3
X115.062Y-24.7
T2
X27.432Y-18.288
X27.94Y-27.178
X34.417Y-46.101
X36.177Y-20.828
X37.973Y-18.161
X38.354Y-27.178
X46.228Y-32.258
X62.992Y-75.692
X70.353Y-43.434
X70.358Y-49.276
X71.247Y-105.283
X71.247Y-134.62
X72.263Y-107.061
X72.39Y-138.303
X77.216Y-65.786
X77.216Y-91.313
X77.216Y-101.727
X80.864Y-86.36
X82.296Y-101.994
X82.804Y-84.836
X82.931Y-93.98
X84.709Y-87.63
X85.344Y-24.13
X85.471Y-33.401
X86.828Y-32.512
X89.853Y-85.344
X90.17Y-33.401
X90.297Y-101.854
X90.805Y-94.742
X92.075Y-65.532
X95.631Y-101.854
X95.9Y-89.6
X96.266Y-22.225
X96.266Y-32.639
X96.901Y-23.114
X97.155Y-131.191
X97.409Y-20.32
X98.552Y-72.009
X98.552Y-104.521
X99.314Y-41.783
X101.473Y-136.398
X101.6Y-16.51
X101.727Y-18.415
X102.235Y-75.565
X102.235Y-103.886
X102.489Y-50.419
X102.997Y-44.831
X103.632Y-136.017
X104.761Y-29.591
X105.156Y-20.701
X106.207Y-27.686
X106.207Y-28.98
X106.412Y-21.36
X106.807Y-43.942
X107.607Y-23.222
X107.696Y-19.558
X107.95Y-47.879
X108.077Y-43.815
X108.677Y-24.638
X108.677Y-31.051
X109.22Y-51.562
X109.22Y-114.3
X109.982Y-123.444
X110.109Y-35.814
X111.125Y-114.046
X111.506Y-123.444
X112.014Y-114.046
X112.649Y-123.317
X112.776Y-68.834
X113.665Y-71.882
X114.173Y-90.805
X115.57Y-76.327
X115.697Y-88.519
X117.1Y-58.4
X119.507Y-35.433
X120.015Y-32.893
X120.777Y-35.433
X121.031Y-48.133
X121.412Y-35.433
X121.539Y-37.973
X121.666Y-39.37
X122.151Y-55.776
X123.0Y-59.8
X123.825Y-52.705
X124.303Y-64.673
X124.333Y-75.692
X124.968Y-51.562
X124.968Y-55.753
X125.476Y-65.151
X125.476Y-90.678
X125.539Y-50.609
X125.7Y-57.9
X126.365Y-55.753
X127.117Y-106.553
X127.127Y-64.262
X127.254Y-43.815
X127.508Y-129.921
X127.569Y-102.616
X128.7Y-125.2
X128.9Y-55.0
X129.54Y-101.727
X130.556Y-102.743
X131.445Y-135.509
X131.953Y-51.308
X131.953Y-103.251
X132.08Y-75.692
X133.477Y-134.874
X133.731Y-45.085
X133.985Y-104.521
X134.239Y-28.575
X135.128Y-102.997
X135.9Y-85.6
X136.271Y-88.138
X139.827Y-87.806
X141.224Y-103.124
X142.621Y-82.074
X143.764Y-73.533
X147.32Y-82.169
X148.209Y-88.011
X149.606Y-82.042
X150.114Y-84.328
X150.368Y-103.124
X150.876Y-73.66
X151.511Y-91.694
X153.797Y-103.86
X154.813Y-86.106
X156.337Y-100.965
X156.845Y-102.743
X157.988Y-131.064
X158.115Y-139.573
X158.75Y-99.822
X159.131Y-43.18
X159.258Y-72.99
X161.596Y-105.205
X163.068Y-50.8
X163.195Y-134.366
X163.449Y-103.759
X163.83Y-46.101
T3
X34.1Y-49.8
X34.4Y-58.2
X57.7Y-58.5
X57.8Y-49.9
X130.9Y-18.66
X130.9Y-21.2
X130.9Y-23.74
T4
X31.576Y-42.672
X36.576Y-42.672
M30
