%TF.GenerationSoftware,KiCad,Pcbnew,9.0.3*%
%TF.CreationDate,2026-08-10T04:31:33-04:00*%
%TF.ProjectId,8x8,3878382e-6b69-4636-9164-5f7063625858,rev?*%
%TF.SameCoordinates,Original*%
%TF.FileFunction,Soldermask,Top*%
%TF.FilePolarity,Negative*%
%FSLAX46Y46*%
G04 Gerber Fmt 4.6, Leading zero omitted, Abs format (unit mm)*
G04 Created by KiCad (PCBNEW 9.0.3) date 2026-08-10 04:31:33*
%MOMM*%
%LPD*%
G01*
G04 APERTURE LIST*
G04 Aperture macros list*
%AMRoundRect*
0 Rectangle with rounded corners*
0 $1 Rounding radius*
0 $2 $3 $4 $5 $6 $7 $8 $9 X,Y pos of 4 corners*
0 Add a 4 corners polygon primitive as box body*
4,1,4,$2,$3,$4,$5,$6,$7,$8,$9,$2,$3,0*
0 Add four circle primitives for the rounded corners*
1,1,$1+$1,$2,$3*
1,1,$1+$1,$4,$5*
1,1,$1+$1,$6,$7*
1,1,$1+$1,$8,$9*
0 Add four rect primitives between the rounded corners*
20,1,$1+$1,$2,$3,$4,$5,0*
20,1,$1+$1,$4,$5,$6,$7,0*
20,1,$1+$1,$6,$7,$8,$9,0*
20,1,$1+$1,$8,$9,$2,$3,0*%
G04 Aperture macros list end*
%ADD10RoundRect,0.250000X-0.350000X-0.450000X0.350000X-0.450000X0.350000X0.450000X-0.350000X0.450000X0*%
%ADD11R,1.800000X1.100000*%
%ADD12R,2.800000X1.500000*%
%ADD13R,6.100000X6.300000*%
%ADD14RoundRect,0.250000X-0.250000X-0.475000X0.250000X-0.475000X0.250000X0.475000X-0.250000X0.475000X0*%
%ADD15C,3.800000*%
%ADD16RoundRect,0.760000X-1.140000X-1.140000X1.140000X-1.140000X1.140000X1.140000X-1.140000X1.140000X0*%
%ADD17R,1.700000X1.700000*%
%ADD18RoundRect,0.100500X1.031500X0.301500X-1.031500X0.301500X-1.031500X-0.301500X1.031500X-0.301500X0*%
%ADD19RoundRect,0.102000X1.050000X-1.800000X1.050000X1.800000X-1.050000X1.800000X-1.050000X-1.800000X0*%
%ADD20RoundRect,0.102000X1.050000X-0.840000X1.050000X0.840000X-1.050000X0.840000X-1.050000X-0.840000X0*%
%ADD21RoundRect,0.250000X-0.450000X0.350000X-0.450000X-0.350000X0.450000X-0.350000X0.450000X0.350000X0*%
%ADD22RoundRect,0.250000X0.250000X0.475000X-0.250000X0.475000X-0.250000X-0.475000X0.250000X-0.475000X0*%
%ADD23RoundRect,0.100500X-1.031500X-0.301500X1.031500X-0.301500X1.031500X0.301500X-1.031500X0.301500X0*%
%ADD24RoundRect,0.250000X0.450000X-0.350000X0.450000X0.350000X-0.450000X0.350000X-0.450000X-0.350000X0*%
%ADD25RoundRect,0.250000X0.350000X0.450000X-0.350000X0.450000X-0.350000X-0.450000X0.350000X-0.450000X0*%
%ADD26R,0.508000X1.219200*%
%ADD27R,1.525000X0.650000*%
%ADD28RoundRect,0.250000X0.475000X-0.250000X0.475000X0.250000X-0.475000X0.250000X-0.475000X-0.250000X0*%
%ADD29R,0.650000X1.525000*%
%ADD30C,1.700000*%
%ADD31RoundRect,0.250000X-0.475000X0.250000X-0.475000X-0.250000X0.475000X-0.250000X0.475000X0.250000X0*%
%ADD32R,1.500000X0.900000*%
%ADD33R,0.900000X1.500000*%
%ADD34C,0.600000*%
%ADD35R,3.900000X3.900000*%
G04 APERTURE END LIST*
D10*
%TO.C,R148*%
X238500000Y-18950000D03*
X236500000Y-18950000D03*
%TD*%
%TO.C,R150*%
X238700000Y-35975000D03*
X236700000Y-35975000D03*
%TD*%
D11*
%TO.C,SW4*%
X242975000Y-34000000D03*
X236775000Y-34000000D03*
X242975000Y-30300000D03*
X236775000Y-30300000D03*
%TD*%
%TO.C,SW3*%
X236700000Y-21275000D03*
X242900000Y-21275000D03*
X236700000Y-24975000D03*
X242900000Y-24975000D03*
%TD*%
D10*
%TO.C,R138*%
X225975000Y-28300000D03*
X223975000Y-28300000D03*
%TD*%
D11*
%TO.C,SW2*%
X224225000Y-30425000D03*
X230425000Y-30425000D03*
X224225000Y-34125000D03*
X230425000Y-34125000D03*
%TD*%
%TO.C,SW1*%
X224325000Y-21400000D03*
X230525000Y-21400000D03*
X224325000Y-25100000D03*
X230525000Y-25100000D03*
%TD*%
D10*
%TO.C,R137*%
X226150000Y-19075000D03*
X224150000Y-19075000D03*
%TD*%
D12*
%TO.C,U12*%
X166787500Y-27323500D03*
D13*
X173037500Y-25037500D03*
D12*
X166787500Y-22751500D03*
%TD*%
D14*
%TO.C,C61*%
X168512500Y-30437500D03*
X166612500Y-30437500D03*
%TD*%
D15*
%TO.C,J41*%
X158837500Y-24637500D03*
D16*
X153837500Y-24637500D03*
%TD*%
D17*
%TO.C,J43*%
X187952500Y-32487500D03*
%TD*%
D18*
%TO.C,U11*%
X470750000Y-157125000D03*
X470750000Y-155855000D03*
X470750000Y-154585000D03*
X470750000Y-153315000D03*
X470750000Y-152045000D03*
X470750000Y-150775000D03*
X470750000Y-149505000D03*
X470750000Y-148235000D03*
X470750000Y-146965000D03*
X470750000Y-145695000D03*
X470750000Y-144425000D03*
X470750000Y-143155000D03*
X461470000Y-143155000D03*
X461470000Y-144425000D03*
X461470000Y-145695000D03*
X461470000Y-146965000D03*
X461470000Y-148235000D03*
X461470000Y-149505000D03*
X461470000Y-150775000D03*
X461470000Y-152045000D03*
X461470000Y-153315000D03*
X461470000Y-154585000D03*
X461470000Y-155855000D03*
X461470000Y-157125000D03*
%TD*%
D19*
%TO.C,D10*%
X401775000Y-76750000D03*
D20*
X401775000Y-80720000D03*
%TD*%
D10*
%TO.C,R68*%
X250425000Y-307575000D03*
X248425000Y-307575000D03*
%TD*%
D19*
%TO.C,D54*%
X250025000Y-301200000D03*
D20*
X250025000Y-305170000D03*
%TD*%
D19*
%TO.C,D44*%
X327475000Y-263200000D03*
D20*
X327475000Y-267170000D03*
%TD*%
D21*
%TO.C,R62*%
X180800000Y-265675000D03*
X180800000Y-263675000D03*
%TD*%
D22*
%TO.C,C80*%
X473312500Y-257190000D03*
X475212500Y-257190000D03*
%TD*%
D23*
%TO.C,U13*%
X471080000Y-257280000D03*
X471080000Y-258550000D03*
X471080000Y-259820000D03*
X471080000Y-261090000D03*
X471080000Y-262360000D03*
X471080000Y-263630000D03*
X471080000Y-264900000D03*
X471080000Y-266170000D03*
X471080000Y-267440000D03*
X471080000Y-268710000D03*
X471080000Y-269980000D03*
X471080000Y-271250000D03*
X461800000Y-271250000D03*
X461800000Y-269980000D03*
X461800000Y-268710000D03*
X461800000Y-267440000D03*
X461800000Y-266170000D03*
X461800000Y-264900000D03*
X461800000Y-263630000D03*
X461800000Y-262360000D03*
X461800000Y-261090000D03*
X461800000Y-259820000D03*
X461800000Y-258550000D03*
X461800000Y-257280000D03*
%TD*%
D24*
%TO.C,R54*%
X175600000Y-228705000D03*
X175600000Y-230705000D03*
%TD*%
D19*
%TO.C,D40*%
X175500000Y-222255000D03*
D20*
X175500000Y-226225000D03*
%TD*%
D25*
%TO.C,R111*%
X436325000Y-184325000D03*
X434325000Y-184325000D03*
%TD*%
D24*
%TO.C,R77*%
X249250000Y-145825000D03*
X249250000Y-147825000D03*
%TD*%
D10*
%TO.C,R100*%
X400025000Y-73550000D03*
X398025000Y-73550000D03*
%TD*%
%TO.C,R80*%
X364325000Y-73650000D03*
X362325000Y-73650000D03*
%TD*%
D22*
%TO.C,C72*%
X396375000Y-80375000D03*
X398275000Y-80375000D03*
%TD*%
D26*
%TO.C,J8*%
X362175001Y-75908000D03*
X363125002Y-78400000D03*
X361225000Y-78400000D03*
%TD*%
%TO.C,J20*%
X397300000Y-75675000D03*
X398250001Y-78167000D03*
X396349999Y-78167000D03*
%TD*%
D22*
%TO.C,C39*%
X361300000Y-80475000D03*
X363200000Y-80475000D03*
%TD*%
D21*
%TO.C,R1*%
X463100000Y-106675000D03*
X463100000Y-108675000D03*
%TD*%
D22*
%TO.C,C24*%
X172175000Y-342979000D03*
X170275000Y-342979000D03*
%TD*%
D27*
%TO.C,U7*%
X466324000Y-304600000D03*
X466324000Y-303330000D03*
X466324000Y-302060000D03*
X466324000Y-300790000D03*
X466324000Y-299520000D03*
X466324000Y-298250000D03*
X466324000Y-296980000D03*
X466324000Y-295710000D03*
X460900000Y-295710000D03*
X460900000Y-296980000D03*
X460900000Y-298250000D03*
X460900000Y-299520000D03*
X460900000Y-300790000D03*
X460900000Y-302060000D03*
X460900000Y-303330000D03*
X460900000Y-304600000D03*
%TD*%
D25*
%TO.C,R60*%
X254475000Y-266880000D03*
X252475000Y-266880000D03*
%TD*%
D10*
%TO.C,R110*%
X172100000Y-147575000D03*
X174100000Y-147575000D03*
%TD*%
D20*
%TO.C,D27*%
X366375000Y-192270000D03*
D19*
X366375000Y-188300000D03*
%TD*%
D28*
%TO.C,C7*%
X156949000Y-269855000D03*
X156949000Y-267955000D03*
%TD*%
D20*
%TO.C,D18*%
X401150000Y-154370000D03*
D19*
X401150000Y-150400000D03*
%TD*%
D10*
%TO.C,R67*%
X290025000Y-307105000D03*
X292025000Y-307105000D03*
%TD*%
%TO.C,R27*%
X290500000Y-83175000D03*
X292500000Y-83175000D03*
%TD*%
%TO.C,R52*%
X247350000Y-232175000D03*
X249350000Y-232175000D03*
%TD*%
D26*
%TO.C,J57*%
X361024999Y-341046000D03*
X362925001Y-341046000D03*
X361975000Y-338554000D03*
%TD*%
D24*
%TO.C,R4*%
X157475000Y-78700000D03*
X157475000Y-76700000D03*
%TD*%
D25*
%TO.C,R13*%
X470300000Y-296925000D03*
X468300000Y-296925000D03*
%TD*%
D26*
%TO.C,J12*%
X320449999Y-189553900D03*
X322350001Y-189553900D03*
X321400000Y-187061900D03*
%TD*%
%TO.C,J55*%
X208424998Y-227075000D03*
X210325000Y-227075000D03*
X209374999Y-224583000D03*
%TD*%
D10*
%TO.C,R85*%
X322475000Y-147175000D03*
X324475000Y-147175000D03*
%TD*%
D26*
%TO.C,J21*%
X209299999Y-152746000D03*
X211200001Y-152746000D03*
X210250000Y-150254000D03*
%TD*%
D10*
%TO.C,R121*%
X285774999Y-260208000D03*
X287774999Y-260208000D03*
%TD*%
D22*
%TO.C,C26*%
X286449999Y-266958000D03*
X284549999Y-266958000D03*
%TD*%
%TO.C,C71*%
X250225000Y-115875000D03*
X248325000Y-115875000D03*
%TD*%
D20*
%TO.C,D26*%
X402775000Y-192870000D03*
D19*
X402775000Y-188900000D03*
%TD*%
D10*
%TO.C,R59*%
X289175000Y-267375000D03*
X291175000Y-267375000D03*
%TD*%
D24*
%TO.C,R116*%
X399890001Y-224054000D03*
X399890001Y-222054000D03*
%TD*%
D25*
%TO.C,R7*%
X470400000Y-185300000D03*
X468400000Y-185300000D03*
%TD*%
D24*
%TO.C,R149*%
X277425000Y-42350000D03*
X277425000Y-40350000D03*
%TD*%
D14*
%TO.C,C2*%
X151626000Y-160470000D03*
X153526000Y-160470000D03*
%TD*%
D20*
%TO.C,D32*%
X177975000Y-193695000D03*
D19*
X177975000Y-189725000D03*
%TD*%
D10*
%TO.C,R135*%
X210050000Y-336350000D03*
X212050000Y-336350000D03*
%TD*%
D22*
%TO.C,C60*%
X360750000Y-117228999D03*
X358850000Y-117228999D03*
%TD*%
D20*
%TO.C,D58*%
X402300000Y-341870000D03*
D19*
X402300000Y-337900000D03*
%TD*%
D24*
%TO.C,R78*%
X361175000Y-147550000D03*
X361175000Y-145550000D03*
%TD*%
D26*
%TO.C,J30*%
X171157599Y-152371000D03*
X173057601Y-152371000D03*
X172107600Y-149879000D03*
%TD*%
D10*
%TO.C,R56*%
X400075000Y-268975000D03*
X402075000Y-268975000D03*
%TD*%
%TO.C,R31*%
X439050000Y-156150000D03*
X441050000Y-156150000D03*
%TD*%
%TO.C,R72*%
X149600000Y-346825000D03*
X151600000Y-346825000D03*
%TD*%
D26*
%TO.C,J61*%
X360299998Y-228296000D03*
X362200000Y-228296000D03*
X361249999Y-225804000D03*
%TD*%
D25*
%TO.C,R47*%
X446000000Y-229225000D03*
X444000000Y-229225000D03*
%TD*%
D26*
%TO.C,J48*%
X435624999Y-264217000D03*
X437525001Y-264217000D03*
X436575000Y-261725000D03*
%TD*%
%TO.C,J26*%
X172549999Y-78467000D03*
X174450001Y-78467000D03*
X173500000Y-75975000D03*
%TD*%
D10*
%TO.C,R83*%
X285427200Y-183836600D03*
X287427200Y-183836600D03*
%TD*%
%TO.C,R133*%
X211385000Y-300266500D03*
X213385000Y-300266500D03*
%TD*%
%TO.C,R104*%
X398550000Y-185654000D03*
X400550000Y-185654000D03*
%TD*%
D26*
%TO.C,J25*%
X171525000Y-114200000D03*
X173425002Y-114200000D03*
X172475001Y-111708000D03*
%TD*%
D20*
%TO.C,D5*%
X292650000Y-116270000D03*
D19*
X292650000Y-112300000D03*
%TD*%
D20*
%TO.C,D2*%
X401800000Y-118525000D03*
D19*
X401800000Y-114555000D03*
%TD*%
D22*
%TO.C,C43*%
X210800000Y-266575000D03*
X208900000Y-266575000D03*
%TD*%
%TO.C,C48*%
X437575000Y-80411900D03*
X435675000Y-80411900D03*
%TD*%
%TO.C,C33*%
X174300000Y-193200000D03*
X172400000Y-193200000D03*
%TD*%
D28*
%TO.C,C6*%
X466424000Y-308275000D03*
X466424000Y-306375000D03*
%TD*%
D26*
%TO.C,J66*%
X170324999Y-340821000D03*
X172225001Y-340821000D03*
X171275000Y-338329000D03*
%TD*%
%TO.C,J50*%
X284574998Y-264850000D03*
X286475000Y-264850000D03*
X285524999Y-262358000D03*
%TD*%
D22*
%TO.C,C67*%
X211149999Y-154771000D03*
X209249999Y-154771000D03*
%TD*%
D10*
%TO.C,R45*%
X213150000Y-196650000D03*
X215150000Y-196650000D03*
%TD*%
D26*
%TO.C,J52*%
X284474999Y-226746000D03*
X286375001Y-226746000D03*
X285425000Y-224254000D03*
%TD*%
D25*
%TO.C,R49*%
X370775000Y-230600000D03*
X368775000Y-230600000D03*
%TD*%
D24*
%TO.C,R118*%
X399350000Y-260533000D03*
X399350000Y-258533000D03*
%TD*%
D27*
%TO.C,U6*%
X156949000Y-266280000D03*
X156949000Y-265010000D03*
X156949000Y-263740000D03*
X156949000Y-262470000D03*
X156949000Y-261200000D03*
X156949000Y-259930000D03*
X156949000Y-258660000D03*
X156949000Y-257390000D03*
X151525000Y-257390000D03*
X151525000Y-258660000D03*
X151525000Y-259930000D03*
X151525000Y-261200000D03*
X151525000Y-262470000D03*
X151525000Y-263740000D03*
X151525000Y-265010000D03*
X151525000Y-266280000D03*
%TD*%
D26*
%TO.C,J17*%
X210250000Y-114400000D03*
X212150002Y-114400000D03*
X211200001Y-111908000D03*
%TD*%
D10*
%TO.C,R58*%
X325850000Y-269725000D03*
X327850000Y-269725000D03*
%TD*%
D25*
%TO.C,R9*%
X470800000Y-220850000D03*
X468800000Y-220850000D03*
%TD*%
D20*
%TO.C,D56*%
X181225000Y-308045000D03*
D19*
X181225000Y-304075000D03*
%TD*%
D22*
%TO.C,C65*%
X212922799Y-81146000D03*
X211022799Y-81146000D03*
%TD*%
D28*
%TO.C,C25*%
X138017500Y-140650000D03*
X138017500Y-138750000D03*
%TD*%
D26*
%TO.C,J62*%
X172924999Y-265096000D03*
X174825001Y-265096000D03*
X173875000Y-262604000D03*
%TD*%
D20*
%TO.C,D23*%
X214875000Y-155220000D03*
D19*
X214875000Y-151250000D03*
%TD*%
D18*
%TO.C,U9*%
X149605000Y-138545000D03*
X149605000Y-137275000D03*
X149605000Y-136005000D03*
X149605000Y-134735000D03*
X149605000Y-133465000D03*
X149605000Y-132195000D03*
X149605000Y-130925000D03*
X149605000Y-129655000D03*
X149605000Y-128385000D03*
X149605000Y-127115000D03*
X149605000Y-125845000D03*
X149605000Y-124575000D03*
X140325000Y-124575000D03*
X140325000Y-125845000D03*
X140325000Y-127115000D03*
X140325000Y-128385000D03*
X140325000Y-129655000D03*
X140325000Y-130925000D03*
X140325000Y-132195000D03*
X140325000Y-133465000D03*
X140325000Y-134735000D03*
X140325000Y-136005000D03*
X140325000Y-137275000D03*
X140325000Y-138545000D03*
%TD*%
D19*
%TO.C,D39*%
X213100000Y-225630000D03*
D20*
X213100000Y-229600000D03*
%TD*%
D22*
%TO.C,C37*%
X286400000Y-228904000D03*
X284500000Y-228904000D03*
%TD*%
D25*
%TO.C,R5*%
X157400000Y-151050000D03*
X155400000Y-151050000D03*
%TD*%
D22*
%TO.C,C53*%
X210274999Y-229508000D03*
X208374999Y-229508000D03*
%TD*%
D10*
%TO.C,R40*%
X400475000Y-195250000D03*
X402475000Y-195250000D03*
%TD*%
D22*
%TO.C,C13*%
X361836999Y-267851800D03*
X359936999Y-267851800D03*
%TD*%
D20*
%TO.C,D62*%
X252399000Y-341300000D03*
D19*
X252399000Y-337330000D03*
%TD*%
D25*
%TO.C,R37*%
X219675000Y-154875000D03*
X217675000Y-154875000D03*
%TD*%
D22*
%TO.C,C18*%
X437675000Y-266300000D03*
X435775000Y-266300000D03*
%TD*%
D26*
%TO.C,J4*%
X360549999Y-190467000D03*
X362450001Y-190467000D03*
X361500000Y-187975000D03*
%TD*%
D22*
%TO.C,C78*%
X362550000Y-192825000D03*
X360650000Y-192825000D03*
%TD*%
D26*
%TO.C,J1*%
X248499998Y-113775000D03*
X250400000Y-113775000D03*
X249449999Y-111283000D03*
%TD*%
%TO.C,J49*%
X435525000Y-226850000D03*
X437425002Y-226850000D03*
X436475001Y-224358000D03*
%TD*%
%TO.C,J6*%
X358299999Y-151117000D03*
X360200001Y-151117000D03*
X359250000Y-148625000D03*
%TD*%
D22*
%TO.C,C59*%
X177025000Y-308054000D03*
X175125000Y-308054000D03*
%TD*%
%TO.C,C15*%
X361957600Y-304504000D03*
X360057600Y-304504000D03*
%TD*%
D20*
%TO.C,D41*%
X441650000Y-264520000D03*
D19*
X441650000Y-260550000D03*
%TD*%
D25*
%TO.C,R90*%
X407050000Y-342025000D03*
X405050000Y-342025000D03*
%TD*%
D10*
%TO.C,R109*%
X173575000Y-186400000D03*
X175575000Y-186400000D03*
%TD*%
D29*
%TO.C,U2*%
X148060000Y-74674000D03*
X149330000Y-74674000D03*
X150600000Y-74674000D03*
X151870000Y-74674000D03*
X153140000Y-74674000D03*
X154410000Y-74674000D03*
X155680000Y-74674000D03*
X156950000Y-74674000D03*
X156950000Y-69250000D03*
X155680000Y-69250000D03*
X154410000Y-69250000D03*
X153140000Y-69250000D03*
X151870000Y-69250000D03*
X150600000Y-69250000D03*
X149330000Y-69250000D03*
X148060000Y-69250000D03*
%TD*%
D26*
%TO.C,J36*%
X397225000Y-227450000D03*
X399125002Y-227450000D03*
X398175001Y-224958000D03*
%TD*%
%TO.C,J10*%
X284249999Y-188371000D03*
X286150001Y-188371000D03*
X285200000Y-185879000D03*
%TD*%
D20*
%TO.C,D36*%
X326600000Y-228345000D03*
D19*
X326600000Y-224375000D03*
%TD*%
D10*
%TO.C,R66*%
X326025000Y-306175000D03*
X328025000Y-306175000D03*
%TD*%
%TO.C,R6*%
X151400000Y-147625000D03*
X153400000Y-147625000D03*
%TD*%
D25*
%TO.C,R38*%
X181150000Y-154925000D03*
X179150000Y-154925000D03*
%TD*%
D20*
%TO.C,D29*%
X289375000Y-191195000D03*
D19*
X289375000Y-187225000D03*
%TD*%
D28*
%TO.C,C16*%
X466700000Y-232045000D03*
X466700000Y-230145000D03*
%TD*%
D26*
%TO.C,J29*%
X172449999Y-191071000D03*
X174350001Y-191071000D03*
X173400000Y-188579000D03*
%TD*%
D24*
%TO.C,R73*%
X251125000Y-110400000D03*
X251125000Y-108400000D03*
%TD*%
D22*
%TO.C,C28*%
X286102200Y-190511600D03*
X284202200Y-190511600D03*
%TD*%
D20*
%TO.C,D35*%
X366025000Y-230645000D03*
D19*
X366025000Y-226675000D03*
%TD*%
D22*
%TO.C,C22*%
X436625000Y-343000000D03*
X434725000Y-343000000D03*
%TD*%
D20*
%TO.C,D51*%
X365800000Y-304470000D03*
D19*
X365800000Y-300500000D03*
%TD*%
D26*
%TO.C,J16*%
X322324999Y-79367000D03*
X324225001Y-79367000D03*
X323275000Y-76875000D03*
%TD*%
D10*
%TO.C,R63*%
X439750000Y-304950000D03*
X441750000Y-304950000D03*
%TD*%
D20*
%TO.C,D43*%
X365625000Y-266995000D03*
D19*
X365625000Y-263025000D03*
%TD*%
D20*
%TO.C,D9*%
X441000000Y-81120000D03*
D19*
X441000000Y-77150000D03*
%TD*%
D20*
%TO.C,D47*%
X215575000Y-264900000D03*
D19*
X215575000Y-260930000D03*
%TD*%
D20*
%TO.C,D50*%
X402400000Y-304020000D03*
D19*
X402400000Y-300050000D03*
%TD*%
D27*
%TO.C,U5*%
X466725000Y-228470000D03*
X466725000Y-227200000D03*
X466725000Y-225930000D03*
X466725000Y-224660000D03*
X466725000Y-223390000D03*
X466725000Y-222120000D03*
X466725000Y-220850000D03*
X466725000Y-219580000D03*
X461301000Y-219580000D03*
X461301000Y-220850000D03*
X461301000Y-222120000D03*
X461301000Y-223390000D03*
X461301000Y-224660000D03*
X461301000Y-225930000D03*
X461301000Y-227200000D03*
X461301000Y-228470000D03*
%TD*%
D10*
%TO.C,R97*%
X212300000Y-109825000D03*
X214300000Y-109825000D03*
%TD*%
D17*
%TO.C,J45*%
X205675000Y-32515000D03*
%TD*%
D22*
%TO.C,C56*%
X324325000Y-116833001D03*
X322425000Y-116833001D03*
%TD*%
%TO.C,C46*%
X438650000Y-118900000D03*
X436750000Y-118900000D03*
%TD*%
D17*
%TO.C,J42*%
X187977500Y-19587500D03*
%TD*%
D22*
%TO.C,C57*%
X210700000Y-305904000D03*
X208800000Y-305904000D03*
%TD*%
D10*
%TO.C,R26*%
X325925000Y-83175000D03*
X327925000Y-83175000D03*
%TD*%
D20*
%TO.C,D60*%
X327250000Y-343220000D03*
D19*
X327250000Y-339250000D03*
%TD*%
D24*
%TO.C,R140*%
X171750000Y-223050000D03*
X171750000Y-221050000D03*
%TD*%
D11*
%TO.C,SW6*%
X279975000Y-38780000D03*
X286175000Y-38780000D03*
X279975000Y-42480000D03*
X286175000Y-42480000D03*
%TD*%
D22*
%TO.C,C70*%
X172350000Y-229525000D03*
X170450000Y-229525000D03*
%TD*%
D24*
%TO.C,R117*%
X246650000Y-299875000D03*
X246650000Y-297875000D03*
%TD*%
D26*
%TO.C,J22*%
X396099999Y-151871000D03*
X398000001Y-151871000D03*
X397050000Y-149379000D03*
%TD*%
D20*
%TO.C,D45*%
X291150000Y-264970000D03*
D19*
X291150000Y-261000000D03*
%TD*%
D11*
%TO.C,SW5*%
X316600000Y-32850000D03*
X322800000Y-32850000D03*
X316600000Y-36550000D03*
X322800000Y-36550000D03*
%TD*%
D24*
%TO.C,R127*%
X286900000Y-223275000D03*
X286900000Y-221275000D03*
%TD*%
D20*
%TO.C,D12*%
X328550000Y-80895000D03*
D19*
X328550000Y-76925000D03*
%TD*%
D22*
%TO.C,C41*%
X399400000Y-192279000D03*
X397500000Y-192279000D03*
%TD*%
D20*
%TO.C,D59*%
X366700000Y-343345000D03*
D19*
X366700000Y-339375000D03*
%TD*%
D10*
%TO.C,R65*%
X364250000Y-306925000D03*
X366250000Y-306925000D03*
%TD*%
D25*
%TO.C,R81*%
X286587999Y-111548899D03*
X284587999Y-111548899D03*
%TD*%
D10*
%TO.C,R41*%
X364250000Y-194775000D03*
X366250000Y-194775000D03*
%TD*%
D26*
%TO.C,J19*%
X395799999Y-116442000D03*
X397700001Y-116442000D03*
X396750000Y-113950000D03*
%TD*%
D22*
%TO.C,C75*%
X174475001Y-80617000D03*
X172575001Y-80617000D03*
%TD*%
D24*
%TO.C,R86*%
X323200000Y-186025000D03*
X323200000Y-184025000D03*
%TD*%
D26*
%TO.C,J40*%
X396574998Y-341125000D03*
X398475000Y-341125000D03*
X397524999Y-338633000D03*
%TD*%
D22*
%TO.C,C76*%
X246725000Y-266375000D03*
X244825000Y-266375000D03*
%TD*%
D17*
%TO.C,J70*%
X319775000Y-22025000D03*
D30*
X319775000Y-24565000D03*
X319775000Y-27105000D03*
%TD*%
D10*
%TO.C,R114*%
X247250002Y-336675000D03*
X249250002Y-336675000D03*
%TD*%
D22*
%TO.C,C55*%
X362174999Y-230329000D03*
X360274999Y-230329000D03*
%TD*%
D21*
%TO.C,R12*%
X157025000Y-253500000D03*
X157025000Y-255500000D03*
%TD*%
D25*
%TO.C,R18*%
X329125000Y-118450000D03*
X327125000Y-118450000D03*
%TD*%
D26*
%TO.C,J31*%
X435300000Y-188775000D03*
X437200002Y-188775000D03*
X436250001Y-186283000D03*
%TD*%
D10*
%TO.C,R51*%
X289725000Y-231000000D03*
X287725000Y-231000000D03*
%TD*%
D20*
%TO.C,D38*%
X249075000Y-229970000D03*
D19*
X249075000Y-226000000D03*
%TD*%
D10*
%TO.C,R108*%
X437050000Y-73575000D03*
X439050000Y-73575000D03*
%TD*%
D24*
%TO.C,R131*%
X362772600Y-299079000D03*
X362772600Y-297079000D03*
%TD*%
%TO.C,R119*%
X243275000Y-224250000D03*
X243275000Y-222250000D03*
%TD*%
D10*
%TO.C,R30*%
X175250000Y-83850000D03*
X177250000Y-83850000D03*
%TD*%
D26*
%TO.C,J3*%
X359024999Y-115049999D03*
X360925001Y-115049999D03*
X359975000Y-112557999D03*
%TD*%
D22*
%TO.C,C77*%
X212300000Y-193625000D03*
X210400000Y-193625000D03*
%TD*%
D26*
%TO.C,J56*%
X359924999Y-302396000D03*
X361825001Y-302396000D03*
X360875000Y-299904000D03*
%TD*%
D20*
%TO.C,D48*%
X177850000Y-266345000D03*
D19*
X177850000Y-262375000D03*
%TD*%
D10*
%TO.C,R55*%
X440200000Y-266975000D03*
X442200000Y-266975000D03*
%TD*%
D20*
%TO.C,D8*%
X176250000Y-116395000D03*
D19*
X176250000Y-112425000D03*
%TD*%
D10*
%TO.C,R112*%
X436725000Y-147104000D03*
X438725000Y-147104000D03*
%TD*%
D20*
%TO.C,D52*%
X327650000Y-303725000D03*
D19*
X327650000Y-299755000D03*
%TD*%
D22*
%TO.C,C69*%
X210700000Y-343300000D03*
X208800000Y-343300000D03*
%TD*%
%TO.C,C50*%
X437300001Y-190958000D03*
X435400001Y-190958000D03*
%TD*%
D21*
%TO.C,R2*%
X460975000Y-106675000D03*
X460975000Y-108675000D03*
%TD*%
D24*
%TO.C,R146*%
X324359600Y-262100000D03*
X324359600Y-260100000D03*
%TD*%
D10*
%TO.C,R144*%
X176549999Y-301421000D03*
X178549999Y-301421000D03*
%TD*%
D20*
%TO.C,D19*%
X364050000Y-153495000D03*
D19*
X364050000Y-149525000D03*
%TD*%
D25*
%TO.C,R107*%
X435850000Y-113175000D03*
X433850000Y-113175000D03*
%TD*%
D22*
%TO.C,C66*%
X249215200Y-154307600D03*
X247315200Y-154307600D03*
%TD*%
D10*
%TO.C,R103*%
X211575000Y-186975000D03*
X213575000Y-186975000D03*
%TD*%
D21*
%TO.C,R11*%
X154850000Y-253400000D03*
X154850000Y-255400000D03*
%TD*%
D14*
%TO.C,C3*%
X144475000Y-74725000D03*
X146375000Y-74725000D03*
%TD*%
D26*
%TO.C,J39*%
X244200000Y-227575000D03*
X246100002Y-227575000D03*
X245150001Y-225083000D03*
%TD*%
D20*
%TO.C,D64*%
X177300000Y-341070000D03*
D19*
X177300000Y-337100000D03*
%TD*%
D20*
%TO.C,D21*%
X289225000Y-154445000D03*
D19*
X289225000Y-150475000D03*
%TD*%
D20*
%TO.C,D53*%
X291875000Y-304595000D03*
D19*
X291875000Y-300625000D03*
%TD*%
D24*
%TO.C,R75*%
X361824999Y-111574999D03*
X361824999Y-109574999D03*
%TD*%
D10*
%TO.C,R143*%
X171175000Y-336279000D03*
X173175000Y-336279000D03*
%TD*%
D26*
%TO.C,J65*%
X321499998Y-340950000D03*
X323400000Y-340950000D03*
X322449999Y-338458000D03*
%TD*%
D10*
%TO.C,R106*%
X173900001Y-73567000D03*
X175900001Y-73567000D03*
%TD*%
D20*
%TO.C,D4*%
X327400000Y-116050000D03*
D19*
X327400000Y-112080000D03*
%TD*%
D29*
%TO.C,U1*%
X470670000Y-110788000D03*
X469400000Y-110788000D03*
X468130000Y-110788000D03*
X466860000Y-110788000D03*
X465590000Y-110788000D03*
X464320000Y-110788000D03*
X463050000Y-110788000D03*
X461780000Y-110788000D03*
X461780000Y-116212000D03*
X463050000Y-116212000D03*
X464320000Y-116212000D03*
X465590000Y-116212000D03*
X466860000Y-116212000D03*
X468130000Y-116212000D03*
X469400000Y-116212000D03*
X470670000Y-116212000D03*
%TD*%
D10*
%TO.C,R69*%
X212650000Y-309950000D03*
X214650000Y-309950000D03*
%TD*%
D25*
%TO.C,R92*%
X332100000Y-343350000D03*
X330100000Y-343350000D03*
%TD*%
D14*
%TO.C,C79*%
X290250000Y-23650000D03*
X292150000Y-23650000D03*
%TD*%
D26*
%TO.C,J32*%
X435824999Y-151646000D03*
X437725001Y-151646000D03*
X436775000Y-149154000D03*
%TD*%
D24*
%TO.C,R74*%
X247925000Y-185000000D03*
X247925000Y-183000000D03*
%TD*%
D10*
%TO.C,R61*%
X213050000Y-267350000D03*
X215050000Y-267350000D03*
%TD*%
D26*
%TO.C,J46*%
X285274998Y-303925000D03*
X287175000Y-303925000D03*
X286224999Y-301433000D03*
%TD*%
%TO.C,J15*%
X287677199Y-78215200D03*
X289577201Y-78215200D03*
X288627200Y-75723200D03*
%TD*%
D20*
%TO.C,D22*%
X252550000Y-154420000D03*
D19*
X252550000Y-150450000D03*
%TD*%
D22*
%TO.C,C38*%
X324175000Y-81475000D03*
X322275000Y-81475000D03*
%TD*%
D24*
%TO.C,R115*%
X399189999Y-300200001D03*
X399189999Y-298200001D03*
%TD*%
%TO.C,R126*%
X438290001Y-223333000D03*
X438290001Y-221333000D03*
%TD*%
D21*
%TO.C,R71*%
X149725000Y-341675000D03*
X149725000Y-343675000D03*
%TD*%
D22*
%TO.C,C23*%
X437200001Y-305283000D03*
X435300001Y-305283000D03*
%TD*%
D20*
%TO.C,D30*%
X251575000Y-191345000D03*
D19*
X251575000Y-187375000D03*
%TD*%
D22*
%TO.C,C12*%
X323544600Y-267700000D03*
X321644600Y-267700000D03*
%TD*%
%TO.C,C11*%
X322777199Y-228778900D03*
X320877199Y-228778900D03*
%TD*%
D25*
%TO.C,R14*%
X468575000Y-293850000D03*
X466575000Y-293850000D03*
%TD*%
D22*
%TO.C,C29*%
X285759800Y-153911600D03*
X283859800Y-153911600D03*
%TD*%
D14*
%TO.C,C52*%
X166262500Y-19737500D03*
X168162500Y-19737500D03*
%TD*%
D20*
%TO.C,D63*%
X215100000Y-342975000D03*
D19*
X215100000Y-339005000D03*
%TD*%
D22*
%TO.C,C63*%
X173350001Y-116233000D03*
X171450001Y-116233000D03*
%TD*%
D10*
%TO.C,R36*%
X250200000Y-156500000D03*
X252200000Y-156500000D03*
%TD*%
D20*
%TO.C,D16*%
X178150000Y-81675000D03*
D19*
X178150000Y-77705000D03*
%TD*%
D22*
%TO.C,C30*%
X251550000Y-80850000D03*
X249650000Y-80850000D03*
%TD*%
D26*
%TO.C,J53*%
X434599999Y-340842000D03*
X436500001Y-340842000D03*
X435550000Y-338350000D03*
%TD*%
D22*
%TO.C,C27*%
X246025000Y-305582900D03*
X244125000Y-305582900D03*
%TD*%
%TO.C,C9*%
X323732599Y-304671000D03*
X321832599Y-304671000D03*
%TD*%
D10*
%TO.C,R70*%
X178875000Y-310150000D03*
X180875000Y-310150000D03*
%TD*%
D20*
%TO.C,D33*%
X441175000Y-229095000D03*
D19*
X441175000Y-225125000D03*
%TD*%
D24*
%TO.C,R145*%
X323442199Y-223153900D03*
X323442199Y-221153900D03*
%TD*%
D26*
%TO.C,J28*%
X435599999Y-78303900D03*
X437500001Y-78303900D03*
X436550000Y-75811900D03*
%TD*%
D22*
%TO.C,C19*%
X398525001Y-266183000D03*
X396625001Y-266183000D03*
%TD*%
D20*
%TO.C,D13*%
X292775000Y-80950000D03*
D19*
X292775000Y-76980000D03*
%TD*%
D10*
%TO.C,R35*%
X286750000Y-156675000D03*
X288750000Y-156675000D03*
%TD*%
D22*
%TO.C,C32*%
X173225000Y-154425000D03*
X171325000Y-154425000D03*
%TD*%
%TO.C,C47*%
X323100000Y-153675000D03*
X321200000Y-153675000D03*
%TD*%
D26*
%TO.C,J14*%
X322499999Y-114750001D03*
X324400001Y-114750001D03*
X323450000Y-112258001D03*
%TD*%
D10*
%TO.C,R28*%
X253175000Y-83875000D03*
X255175000Y-83875000D03*
%TD*%
D26*
%TO.C,J13*%
X287499998Y-115089099D03*
X289400000Y-115089099D03*
X288449999Y-112597099D03*
%TD*%
%TO.C,J64*%
X321849999Y-302571000D03*
X323750001Y-302571000D03*
X322800000Y-300079000D03*
%TD*%
D20*
%TO.C,D3*%
X364700000Y-117445000D03*
D19*
X364700000Y-113475000D03*
%TD*%
D27*
%TO.C,U4*%
X466337000Y-192870000D03*
X466337000Y-191600000D03*
X466337000Y-190330000D03*
X466337000Y-189060000D03*
X466337000Y-187790000D03*
X466337000Y-186520000D03*
X466337000Y-185250000D03*
X466337000Y-183980000D03*
X460913000Y-183980000D03*
X460913000Y-185250000D03*
X460913000Y-186520000D03*
X460913000Y-187790000D03*
X460913000Y-189060000D03*
X460913000Y-190330000D03*
X460913000Y-191600000D03*
X460913000Y-192870000D03*
%TD*%
D10*
%TO.C,R98*%
X212322799Y-74346000D03*
X214322799Y-74346000D03*
%TD*%
D21*
%TO.C,R10*%
X466750000Y-215725000D03*
X466750000Y-217725000D03*
%TD*%
D24*
%TO.C,R124*%
X438140001Y-299783000D03*
X438140001Y-297783000D03*
%TD*%
D10*
%TO.C,R94*%
X249675000Y-343400000D03*
X251675000Y-343400000D03*
%TD*%
D20*
%TO.C,D57*%
X440850000Y-341425000D03*
D19*
X440850000Y-337455000D03*
%TD*%
D24*
%TO.C,R125*%
X438340000Y-260825000D03*
X438340000Y-258825000D03*
%TD*%
D25*
%TO.C,R93*%
X292600000Y-342375000D03*
X290600000Y-342375000D03*
%TD*%
D14*
%TO.C,C62*%
X139875000Y-288975000D03*
X141775000Y-288975000D03*
%TD*%
D24*
%TO.C,R142*%
X324089998Y-337375000D03*
X324089998Y-335375000D03*
%TD*%
D26*
%TO.C,J68*%
X320874999Y-226703900D03*
X322775001Y-226703900D03*
X321825000Y-224211900D03*
%TD*%
D25*
%TO.C,R48*%
X407675000Y-230600000D03*
X405675000Y-230600000D03*
%TD*%
%TO.C,R15*%
X443975000Y-120725000D03*
X441975000Y-120725000D03*
%TD*%
D14*
%TO.C,C49*%
X290250000Y-21005000D03*
X292150000Y-21005000D03*
%TD*%
D27*
%TO.C,U3*%
X153425000Y-158595000D03*
X153425000Y-157325000D03*
X153425000Y-156055000D03*
X153425000Y-154785000D03*
X153425000Y-153515000D03*
X153425000Y-152245000D03*
X153425000Y-150975000D03*
X153425000Y-149705000D03*
X148001000Y-149705000D03*
X148001000Y-150975000D03*
X148001000Y-152245000D03*
X148001000Y-153515000D03*
X148001000Y-154785000D03*
X148001000Y-156055000D03*
X148001000Y-157325000D03*
X148001000Y-158595000D03*
%TD*%
D10*
%TO.C,R16*%
X399400000Y-120725000D03*
X401400000Y-120725000D03*
%TD*%
D26*
%TO.C,J60*%
X208799999Y-341292000D03*
X210700001Y-341292000D03*
X209750000Y-338800000D03*
%TD*%
D24*
%TO.C,R101*%
X211825000Y-149325000D03*
X211825000Y-147325000D03*
%TD*%
D25*
%TO.C,R8*%
X468650000Y-182025000D03*
X466650000Y-182025000D03*
%TD*%
D26*
%TO.C,J27*%
X436724999Y-116817000D03*
X438625001Y-116817000D03*
X437675000Y-114325000D03*
%TD*%
D25*
%TO.C,R50*%
X331300000Y-228525000D03*
X329300000Y-228525000D03*
%TD*%
D18*
%TO.C,U10*%
X153287500Y-288860000D03*
X153287500Y-287590000D03*
X153287500Y-286320000D03*
X153287500Y-285050000D03*
X153287500Y-283780000D03*
X153287500Y-282510000D03*
X153287500Y-281240000D03*
X153287500Y-279970000D03*
X153287500Y-278700000D03*
X153287500Y-277430000D03*
X153287500Y-276160000D03*
X153287500Y-274890000D03*
X144007500Y-274890000D03*
X144007500Y-276160000D03*
X144007500Y-277430000D03*
X144007500Y-278700000D03*
X144007500Y-279970000D03*
X144007500Y-281240000D03*
X144007500Y-282510000D03*
X144007500Y-283780000D03*
X144007500Y-285050000D03*
X144007500Y-286320000D03*
X144007500Y-287590000D03*
X144007500Y-288860000D03*
%TD*%
D22*
%TO.C,C14*%
X363000000Y-343079000D03*
X361100000Y-343079000D03*
%TD*%
D24*
%TO.C,R123*%
X284450000Y-336475000D03*
X284450000Y-334475000D03*
%TD*%
D26*
%TO.C,J2*%
X246800000Y-189375000D03*
X248700002Y-189375000D03*
X247750001Y-186883000D03*
%TD*%
D20*
%TO.C,D7*%
X215475000Y-117295000D03*
D19*
X215475000Y-113325000D03*
%TD*%
D22*
%TO.C,C40*%
X397625000Y-118525000D03*
X395725000Y-118525000D03*
%TD*%
D10*
%TO.C,R33*%
X361650000Y-155775000D03*
X363650000Y-155775000D03*
%TD*%
D20*
%TO.C,D31*%
X215325000Y-194370000D03*
D19*
X215325000Y-190400000D03*
%TD*%
D10*
%TO.C,R24*%
X399925000Y-82800000D03*
X401925000Y-82800000D03*
%TD*%
D20*
%TO.C,D24*%
X176400000Y-154895000D03*
D19*
X176400000Y-150925000D03*
%TD*%
D24*
%TO.C,R99*%
X398775000Y-112975000D03*
X398775000Y-110975000D03*
%TD*%
D26*
%TO.C,J5*%
X247249999Y-152217000D03*
X249150001Y-152217000D03*
X248200000Y-149725000D03*
%TD*%
%TO.C,J59*%
X359899999Y-265746000D03*
X361800001Y-265746000D03*
X360850000Y-263254000D03*
%TD*%
D10*
%TO.C,R113*%
X247735000Y-260737500D03*
X249735000Y-260737500D03*
%TD*%
D22*
%TO.C,C45*%
X245950001Y-229583000D03*
X244050001Y-229583000D03*
%TD*%
D10*
%TO.C,R34*%
X324050000Y-156550000D03*
X326050000Y-156550000D03*
%TD*%
%TO.C,R17*%
X362700000Y-119650000D03*
X364700000Y-119650000D03*
%TD*%
D22*
%TO.C,C74*%
X248625001Y-191383000D03*
X246725001Y-191383000D03*
%TD*%
D20*
%TO.C,D25*%
X440275000Y-191145000D03*
D19*
X440275000Y-187175000D03*
%TD*%
D26*
%TO.C,J11*%
X321175000Y-151825000D03*
X323075002Y-151825000D03*
X322125001Y-149333000D03*
%TD*%
D10*
%TO.C,R21*%
X213175000Y-119650000D03*
X215175000Y-119650000D03*
%TD*%
%TO.C,R43*%
X286900000Y-193500000D03*
X288900000Y-193500000D03*
%TD*%
%TO.C,R22*%
X174175000Y-118625000D03*
X176175000Y-118625000D03*
%TD*%
D22*
%TO.C,C44*%
X322350000Y-191486900D03*
X320450000Y-191486900D03*
%TD*%
D25*
%TO.C,R139*%
X172175000Y-261454000D03*
X170175000Y-261454000D03*
%TD*%
D20*
%TO.C,D55*%
X215050000Y-307620000D03*
D19*
X215050000Y-303650000D03*
%TD*%
D10*
%TO.C,R46*%
X175600000Y-195950000D03*
X177600000Y-195950000D03*
%TD*%
D20*
%TO.C,D14*%
X254875000Y-81495000D03*
D19*
X254875000Y-77525000D03*
%TD*%
D20*
%TO.C,D42*%
X402525000Y-266600000D03*
D19*
X402525000Y-262630000D03*
%TD*%
D25*
%TO.C,R87*%
X286900000Y-74725000D03*
X284900000Y-74725000D03*
%TD*%
D26*
%TO.C,J18*%
X211049999Y-79046000D03*
X212950001Y-79046000D03*
X212000000Y-76554000D03*
%TD*%
D20*
%TO.C,D17*%
X441425000Y-154070000D03*
D19*
X441425000Y-150100000D03*
%TD*%
D26*
%TO.C,J63*%
X170474999Y-227417000D03*
X172375001Y-227417000D03*
X171425000Y-224925000D03*
%TD*%
D20*
%TO.C,D11*%
X366925000Y-80570000D03*
D19*
X366925000Y-76600000D03*
%TD*%
D10*
%TO.C,R96*%
X174925000Y-343475000D03*
X176925000Y-343475000D03*
%TD*%
D19*
%TO.C,D37*%
X289775000Y-224780000D03*
D20*
X289775000Y-228750000D03*
%TD*%
D26*
%TO.C,J69*%
X321600000Y-265600000D03*
X323500002Y-265600000D03*
X322550001Y-263108000D03*
%TD*%
D25*
%TO.C,R95*%
X219975000Y-343050000D03*
X217975000Y-343050000D03*
%TD*%
D22*
%TO.C,C4*%
X474155000Y-110762000D03*
X472255000Y-110762000D03*
%TD*%
D26*
%TO.C,J54*%
X208949999Y-264467000D03*
X210850001Y-264467000D03*
X209900000Y-261975000D03*
%TD*%
D24*
%TO.C,R134*%
X362576999Y-262276800D03*
X362576999Y-260276800D03*
%TD*%
D26*
%TO.C,J51*%
X435350000Y-303150000D03*
X437250002Y-303150000D03*
X436300001Y-300658000D03*
%TD*%
D10*
%TO.C,R88*%
X323475000Y-74675000D03*
X325475000Y-74675000D03*
%TD*%
%TO.C,R44*%
X247550000Y-193750000D03*
X249550000Y-193750000D03*
%TD*%
D26*
%TO.C,J47*%
X281599999Y-340221000D03*
X283500001Y-340221000D03*
X282550000Y-337729000D03*
%TD*%
D24*
%TO.C,R132*%
X363765000Y-337629000D03*
X363765000Y-335629000D03*
%TD*%
D20*
%TO.C,D1*%
X441775000Y-118445000D03*
D19*
X441775000Y-114475000D03*
%TD*%
D10*
%TO.C,R32*%
X399575000Y-156725000D03*
X401575000Y-156725000D03*
%TD*%
%TO.C,R147*%
X316500000Y-39475000D03*
X318500000Y-39475000D03*
%TD*%
D26*
%TO.C,J33*%
X244999999Y-264367000D03*
X246900001Y-264367000D03*
X245950000Y-261875000D03*
%TD*%
D22*
%TO.C,C36*%
X283450000Y-342354000D03*
X281550000Y-342354000D03*
%TD*%
%TO.C,C73*%
X398025000Y-154100000D03*
X396125000Y-154100000D03*
%TD*%
D10*
%TO.C,R122*%
X286674999Y-299083000D03*
X288674999Y-299083000D03*
%TD*%
D25*
%TO.C,R19*%
X294175000Y-118525000D03*
X292175000Y-118525000D03*
%TD*%
D26*
%TO.C,J7*%
X249699999Y-78759400D03*
X251600001Y-78759400D03*
X250650000Y-76267400D03*
%TD*%
D22*
%TO.C,C64*%
X211980400Y-116600000D03*
X210080400Y-116600000D03*
%TD*%
D24*
%TO.C,R105*%
X173425000Y-109875000D03*
X173425000Y-107875000D03*
%TD*%
D20*
%TO.C,D34*%
X402800000Y-230700000D03*
D19*
X402800000Y-226730000D03*
%TD*%
D10*
%TO.C,R29*%
X211775000Y-83650000D03*
X213775000Y-83650000D03*
%TD*%
D20*
%TO.C,D46*%
X252350000Y-264575000D03*
D19*
X252350000Y-260605000D03*
%TD*%
D10*
%TO.C,R53*%
X210575000Y-232375000D03*
X208575000Y-232375000D03*
%TD*%
D27*
%TO.C,U8*%
X151801000Y-336100000D03*
X151801000Y-337370000D03*
X151801000Y-338640000D03*
X151801000Y-339910000D03*
X151801000Y-341180000D03*
X151801000Y-342450000D03*
X151801000Y-343720000D03*
X151801000Y-344990000D03*
X157225000Y-344990000D03*
X157225000Y-343720000D03*
X157225000Y-342450000D03*
X157225000Y-341180000D03*
X157225000Y-339910000D03*
X157225000Y-338640000D03*
X157225000Y-337370000D03*
X157225000Y-336100000D03*
%TD*%
D26*
%TO.C,J38*%
X396625000Y-264050000D03*
X398525002Y-264050000D03*
X397575001Y-261558000D03*
%TD*%
D22*
%TO.C,C8*%
X398800001Y-229829000D03*
X396900001Y-229829000D03*
%TD*%
D25*
%TO.C,R25*%
X369125000Y-83050000D03*
X367125000Y-83050000D03*
%TD*%
D22*
%TO.C,C51*%
X360150000Y-153175000D03*
X358250000Y-153175000D03*
%TD*%
D20*
%TO.C,D15*%
X216700000Y-82045000D03*
D19*
X216700000Y-78075000D03*
%TD*%
D10*
%TO.C,R102*%
X397725000Y-147125000D03*
X399725000Y-147125000D03*
%TD*%
D26*
%TO.C,J34*%
X244600000Y-340325000D03*
X246500002Y-340325000D03*
X245550001Y-337833000D03*
%TD*%
D31*
%TO.C,C5*%
X151751000Y-332425000D03*
X151751000Y-334325000D03*
%TD*%
D24*
%TO.C,R76*%
X363325000Y-186900000D03*
X363325000Y-184900000D03*
%TD*%
%TO.C,R128*%
X437265000Y-337350000D03*
X437265000Y-335350000D03*
%TD*%
%TO.C,R141*%
X324647599Y-299096000D03*
X324647599Y-297096000D03*
%TD*%
D10*
%TO.C,R57*%
X363525000Y-269500000D03*
X365525000Y-269500000D03*
%TD*%
D22*
%TO.C,C20*%
X398374999Y-305675001D03*
X396474999Y-305675001D03*
%TD*%
D10*
%TO.C,R39*%
X437975000Y-193375000D03*
X439975000Y-193375000D03*
%TD*%
D25*
%TO.C,R20*%
X255850000Y-117075000D03*
X253850000Y-117075000D03*
%TD*%
D10*
%TO.C,R130*%
X209474999Y-222333000D03*
X211474999Y-222333000D03*
%TD*%
D20*
%TO.C,D49*%
X441525000Y-302645000D03*
D19*
X441525000Y-298675000D03*
%TD*%
D28*
%TO.C,C1*%
X466300000Y-196550000D03*
X466300000Y-194650000D03*
%TD*%
D22*
%TO.C,C35*%
X289412999Y-117123899D03*
X287512999Y-117123899D03*
%TD*%
D20*
%TO.C,D20*%
X326275000Y-154300000D03*
D19*
X326275000Y-150330000D03*
%TD*%
D22*
%TO.C,C34*%
X463050000Y-159300000D03*
X461150000Y-159300000D03*
%TD*%
D10*
%TO.C,R23*%
X439025000Y-83450000D03*
X441025000Y-83450000D03*
%TD*%
D26*
%TO.C,J37*%
X244124999Y-303453900D03*
X246025001Y-303453900D03*
X245075000Y-300961900D03*
%TD*%
D22*
%TO.C,C58*%
X437700000Y-153879000D03*
X435800000Y-153879000D03*
%TD*%
D17*
%TO.C,J44*%
X205650000Y-19475000D03*
%TD*%
D20*
%TO.C,D61*%
X287800000Y-342195000D03*
D19*
X287800000Y-338225000D03*
%TD*%
D22*
%TO.C,C68*%
X287249999Y-306058000D03*
X285349999Y-306058000D03*
%TD*%
D10*
%TO.C,R82*%
X284884800Y-146911600D03*
X286884800Y-146911600D03*
%TD*%
D32*
%TO.C,U14*%
X294775000Y-20840000D03*
X294775000Y-22110000D03*
X294775000Y-23380000D03*
X294775000Y-24650000D03*
X294775000Y-25920000D03*
X294775000Y-27190000D03*
X294775000Y-28460000D03*
X294775000Y-29730000D03*
X294775000Y-31000000D03*
X294775000Y-32270000D03*
X294775000Y-33540000D03*
X294775000Y-34810000D03*
X294775000Y-36080000D03*
X294775000Y-37350000D03*
D33*
X296540000Y-38600000D03*
X297810000Y-38600000D03*
X299080000Y-38600000D03*
X300350000Y-38600000D03*
X301620000Y-38600000D03*
X302890000Y-38600000D03*
X304160000Y-38600000D03*
X305430000Y-38600000D03*
X306700000Y-38600000D03*
X307970000Y-38600000D03*
X309240000Y-38600000D03*
X310510000Y-38600000D03*
D32*
X312275000Y-37350000D03*
X312275000Y-36080000D03*
X312275000Y-34810000D03*
X312275000Y-33540000D03*
X312275000Y-32270000D03*
X312275000Y-31000000D03*
X312275000Y-29730000D03*
X312275000Y-28460000D03*
X312275000Y-27190000D03*
X312275000Y-25920000D03*
X312275000Y-24650000D03*
X312275000Y-23380000D03*
X312275000Y-22110000D03*
X312275000Y-20840000D03*
D34*
X300625000Y-27860000D03*
X300625000Y-29260000D03*
X301325000Y-27160000D03*
X301325000Y-28560000D03*
X301325000Y-29960000D03*
X302025000Y-27860000D03*
D35*
X302025000Y-28560000D03*
D34*
X302025000Y-29260000D03*
X302725000Y-27160000D03*
X302725000Y-28560000D03*
X302725000Y-29960000D03*
X303425000Y-27860000D03*
X303425000Y-29260000D03*
%TD*%
D20*
%TO.C,D28*%
X326250000Y-191645000D03*
D19*
X326250000Y-187675000D03*
%TD*%
D26*
%TO.C,J23*%
X210304399Y-191496000D03*
X212204401Y-191496000D03*
X211254400Y-189004000D03*
%TD*%
D10*
%TO.C,R79*%
X251025000Y-74200000D03*
X253025000Y-74200000D03*
%TD*%
D26*
%TO.C,J9*%
X283999999Y-151796000D03*
X285900001Y-151796000D03*
X284950000Y-149304000D03*
%TD*%
D10*
%TO.C,R89*%
X439000000Y-343675000D03*
X441000000Y-343675000D03*
%TD*%
D24*
%TO.C,R136*%
X363249998Y-224696000D03*
X363249998Y-222696000D03*
%TD*%
D22*
%TO.C,C10*%
X323424998Y-342975000D03*
X321524998Y-342975000D03*
%TD*%
D25*
%TO.C,R64*%
X404275000Y-306400000D03*
X402275000Y-306400000D03*
%TD*%
D22*
%TO.C,C42*%
X289625000Y-80350000D03*
X287725000Y-80350000D03*
%TD*%
D25*
%TO.C,R91*%
X371500000Y-343375000D03*
X369500000Y-343375000D03*
%TD*%
D26*
%TO.C,J35*%
X396599998Y-303617001D03*
X398500000Y-303617001D03*
X397549999Y-301125001D03*
%TD*%
D22*
%TO.C,C17*%
X398599999Y-343158000D03*
X396699999Y-343158000D03*
%TD*%
D20*
%TO.C,D6*%
X253975000Y-114695000D03*
D19*
X253975000Y-110725000D03*
%TD*%
D24*
%TO.C,R120*%
X399214999Y-337608000D03*
X399214999Y-335608000D03*
%TD*%
%TO.C,R3*%
X155450000Y-78675000D03*
X155450000Y-76675000D03*
%TD*%
D26*
%TO.C,J67*%
X175099999Y-305946000D03*
X177000001Y-305946000D03*
X176050000Y-303454000D03*
%TD*%
%TO.C,J58*%
X208599999Y-303971000D03*
X210500001Y-303971000D03*
X209550000Y-301479000D03*
%TD*%
D10*
%TO.C,R42*%
X323900000Y-193950000D03*
X325900000Y-193950000D03*
%TD*%
D25*
%TO.C,R84*%
X321550000Y-111208001D03*
X319550000Y-111208001D03*
%TD*%
D22*
%TO.C,C31*%
X246325001Y-342583000D03*
X244425001Y-342583000D03*
%TD*%
%TO.C,C21*%
X437350001Y-228958000D03*
X435450001Y-228958000D03*
%TD*%
D10*
%TO.C,R129*%
X210660000Y-259887500D03*
X212660000Y-259887500D03*
%TD*%
D22*
%TO.C,C54*%
X174775000Y-267279000D03*
X172875000Y-267279000D03*
%TD*%
D26*
%TO.C,J24*%
X397349999Y-190246000D03*
X399250001Y-190246000D03*
X398300000Y-187754000D03*
%TD*%
M02*
