M48
; DRILL file {KiCad 9.0.3} date 2026-08-10T04:31:44-0400
; FORMAT={-:-/ absolute / metric / decimal}
; #@! TF.CreationDate,2026-08-10T04:31:44-04:00
; #@! TF.GenerationSoftware,Kicad,Pcbnew,9.0.3
; #@! TF.FileFunction,Plated,1,2,PTH
FMAT,2
METRIC
; #@! TA.AperFunction,Plated,PTH,ComponentDrill
T1C0.200
; #@! TA.AperFunction,Plated,PTH,ViaDrill
T2C0.300
; #@! TA.AperFunction,Plated,PTH,ComponentDrill
T3C1.000
; #@! TA.AperFunction,Plated,PTH,ComponentDrill
T4C2.700
%
G90
G05
T1
X300.625Y-27.86
X300.625Y-29.26
X301.325Y-27.16
X301.325Y-28.56
X301.325Y-29.96
X302.025Y-27.86
X302.025Y-29.26
X302.725Y-27.16
X302.725Y-28.56
X302.725Y-29.96
X303.425Y-27.86
X303.425Y-29.26
T2
X135.174Y-299.55
X135.775Y-266.175
X136.375Y-263.325
X137.625Y-142.925
X138.325Y-126.175
X138.575Y-289.375
X138.851Y-139.662
X139.425Y-140.5
X139.625Y-127.585
X139.7Y-123.9
X140.325Y-125.845
X141.45Y-275.45
X141.65Y-126.875
X141.7Y-133.625
X141.7Y-135.875
X141.75Y-137.3
X142.075Y-134.575
X142.248Y-138.524
X142.55Y-277.475
X142.806Y-272.025
X142.925Y-138.95
X143.075Y-75.925
X143.175Y-74.825
X143.525Y-135.225
X143.925Y-128.025
X144.007Y-274.89
X144.007Y-278.7
X144.075Y-297.175
X144.225Y-146.45
X144.325Y-261.3
X144.35Y-265.1
X144.675Y-136.7
X145.126Y-74.325
X145.126Y-124.449
X145.525Y-117.025
X145.549Y-295.95
X145.55Y-284.525
X145.775Y-260.4
X145.8Y-265.0
X145.95Y-147.2
X146.075Y-285.2
X146.2Y-127.715
X146.275Y-276.475
X146.395Y-271.83
X146.4Y-126.515
X146.718Y-132.782
X147.0Y-259.825
X147.05Y-270.104
X147.15Y-118.125
X147.25Y-147.475
X147.4Y-67.975
X147.725Y-130.875
X147.787Y-157.539
X148.001Y-150.975
X148.001Y-152.245
X148.001Y-153.515
X148.001Y-156.055
X148.025Y-133.4
X148.076Y-159.545
X148.15Y-70.4
X148.3Y-270.125
X148.375Y-258.95
X148.525Y-346.7
X148.575Y-271.525
X149.175Y-265.0
X149.325Y-118.425
X149.35Y-148.625
X149.35Y-275.55
X149.375Y-159.025
X149.553Y-124.523
X149.687Y-245.612
X149.725Y-284.875
X149.825Y-270.325
X149.873Y-272.927
X150.25Y-147.8
X150.325Y-149.5
X150.565Y-154.34
X150.6Y-69.25
X150.6Y-74.674
X150.625Y-158.708
X150.751Y-160.57
X151.25Y-124.525
X151.375Y-129.055
X151.475Y-120.025
X151.525Y-125.8
X151.525Y-257.39
X151.525Y-259.93
X151.525Y-262.47
X151.587Y-338.854
X151.625Y-267.425
X151.766Y-150.825
X151.789Y-342.462
X151.797Y-339.914
X151.801Y-337.37
X151.87Y-69.25
X151.9Y-143.65
X152.33Y-66.68
X152.75Y-331.6
X153.14Y-69.25
X153.14Y-74.674
X153.2Y-261.45
X153.287Y-279.97
X153.425Y-153.946
X153.526Y-160.47
X153.7Y-267.375
X153.925Y-273.175
X154.0Y-309.35
X154.175Y-331.625
X154.25Y-134.625
X154.325Y-122.15
X154.41Y-69.25
X154.41Y-74.877
X154.449Y-259.575
X154.725Y-336.169
X154.85Y-240.575
X155.05Y-287.575
X155.175Y-294.35
X155.275Y-274.85
X155.5Y-135.275
X155.561Y-341.875
X155.68Y-69.25
X155.825Y-286.6
X155.85Y-157.15
X155.941Y-267.609
X156.0Y-123.75
X156.075Y-132.8
X156.55Y-156.15
X156.6Y-154.375
X156.875Y-285.8
X156.949Y-262.47
X156.949Y-265.01
X156.95Y-69.25
X156.95Y-252.4
X157.175Y-79.925
X157.225Y-336.1
X157.225Y-339.91
X157.225Y-341.18
X157.275Y-335.35
X157.5Y-284.775
X157.65Y-346.625
X157.775Y-271.05
X158.0Y-155.25
X158.211Y-262.125
X158.488Y-342.275
X158.788Y-289.888
X159.15Y-137.25
X159.235Y-150.924
X159.55Y-267.725
X159.75Y-262.075
X159.925Y-159.425
X160.258Y-282.458
X160.325Y-150.225
X160.4Y-266.975
X160.85Y-155.975
X161.15Y-138.275
X161.496Y-281.221
X161.55Y-284.775
X162.075Y-265.425
X162.088Y-150.162
X162.275Y-152.125
X162.287Y-24.973
X162.375Y-273.15
X162.45Y-285.85
X162.6Y-283.625
X162.908Y-262.658
X163.354Y-153.346
X163.375Y-136.625
X163.4Y-155.225
X163.4Y-278.625
X163.9Y-272.3
X163.919Y-280.494
X164.175Y-288.525
X164.2Y-156.725
X164.4Y-271.35
X164.675Y-154.55
X165.725Y-270.175
X166.025Y-153.95
X166.325Y-84.7
X166.675Y-156.5
X167.475Y-127.175
X167.6Y-80.45
X168.05Y-86.725
X168.05Y-145.25
X168.117Y-158.108
X168.175Y-272.9
X168.875Y-160.6
X169.054Y-159.046
X169.225Y-263.15
X169.35Y-130.65
X169.45Y-128.025
X169.699Y-146.951
X169.762Y-30.598
X170.049Y-143.301
X170.075Y-136.55
X170.25Y-112.625
X170.3Y-154.125
X170.434Y-344.285
X170.475Y-310.15
X170.599Y-147.85
X170.826Y-152.524
X171.826Y-76.801
X172.125Y-344.375
X172.175Y-261.454
X172.35Y-126.675
X172.85Y-276.875
X172.95Y-71.025
X172.975Y-149.0
X173.2Y-163.1
X173.325Y-227.775
X173.425Y-155.525
X173.797Y-152.746
X174.075Y-130.325
X174.125Y-116.0
X174.132Y-155.9
X174.25Y-153.946
X174.25Y-344.85
X174.35Y-151.125
X174.425Y-336.15
X174.45Y-78.467
X174.8Y-274.625
X175.075Y-327.65
X175.15Y-128.35
X175.25Y-193.175
X175.275Y-78.725
X175.326Y-109.225
X175.4Y-157.325
X175.7Y-147.3
X175.725Y-189.475
X175.85Y-266.175
X175.9Y-148.625
X176.025Y-89.5
X176.125Y-257.5
X177.95Y-151.725
X178.05Y-308.05
X178.35Y-149.3
X178.475Y-285.775
X178.876Y-160.574
X179.125Y-268.025
X179.35Y-152.65
X180.05Y-85.65
X180.487Y-333.663
X182.05Y-268.275
X182.75Y-335.15
X183.063Y-264.563
X183.55Y-281.775
X183.85Y-81.95
X184.125Y-262.7
X185.925Y-279.55
X186.124Y-339.301
X187.2Y-263.85
X188.05Y-258.625
X189.875Y-257.55
X191.675Y-275.275
X192.95Y-72.625
X193.225Y-80.6
X194.625Y-276.95
X196.9Y-270.25
X197.85Y-106.15
X197.95Y-273.15
X198.475Y-248.425
X199.712Y-266.862
X199.9Y-250.125
X201.16Y-189.49
X201.35Y-270.275
X202.812Y-294.337
X202.825Y-290.7
X203.3Y-265.775
X208.0Y-90.8
X208.8Y-341.292
X209.3Y-78.975
X209.375Y-224.583
X209.6Y-83.825
X209.625Y-73.276
X209.9Y-148.675
X210.05Y-336.35
X210.125Y-71.6
X210.25Y-150.254
X210.35Y-230.825
X210.45Y-75.425
X210.95Y-92.5
X211.125Y-129.055
X211.2Y-133.725
X211.2Y-140.4
X211.254Y-189.004
X211.385Y-300.267
X211.65Y-306.625
X211.675Y-264.688
X211.675Y-343.038
X212.0Y-76.554
X212.1Y-154.525
X212.125Y-339.034
X212.6Y-256.675
X212.632Y-152.466
X212.75Y-150.65
X212.85Y-265.525
X212.857Y-258.993
X213.0Y-262.775
X213.25Y-193.625
X213.575Y-257.9
X213.85Y-81.125
X213.95Y-89.675
X214.075Y-147.468
X214.2Y-77.725
X215.575Y-88.125
X217.197Y-157.178
X217.45Y-341.05
X218.7Y-77.7
X219.3Y-43.075
X219.35Y-225.55
X220.275Y-340.05
X221.825Y-156.578
X222.309Y-162.291
X223.321Y-163.304
X223.425Y-220.45
X224.55Y-73.55
X225.487Y-72.187
X225.5Y-165.15
X230.525Y-26.15
X230.575Y-35.1
X230.6Y-112.225
X230.65Y-109.825
X231.025Y-72.175
X231.05Y-114.425
X231.275Y-106.175
X231.925Y-28.675
X232.1Y-21.425
X232.45Y-114.425
X236.675Y-29.225
X236.75Y-26.225
X239.325Y-278.625
X242.975Y-183.2
X243.575Y-54.575
X243.675Y-260.6
X243.974Y-273.149
X244.4Y-21.2
X244.525Y-34.025
X245.075Y-300.962
X245.15Y-225.083
X245.55Y-337.833
X245.844Y-198.719
X245.9Y-230.8
X246.1Y-51.8
X246.65Y-113.025
X247.2Y-305.125
X247.45Y-342.65
X247.825Y-264.846
X248.15Y-343.9
X248.425Y-349.65
X248.8Y-46.6
X249.1Y-265.375
X249.375Y-191.25
X249.475Y-264.625
X249.6Y-85.1
X249.675Y-86.75
X250.025Y-267.75
X250.05Y-262.025
X250.275Y-266.0
X250.725Y-154.6
X251.05Y-115.85
X251.475Y-46.6
X251.775Y-86.025
X252.5Y-80.975
X254.475Y-189.775
X254.5Y-261.5
X254.5Y-309.775
X254.8Y-43.0
X255.825Y-266.2
X255.825Y-270.225
X257.244Y-187.319
X257.3Y-296.0
X257.6Y-290.55
X257.85Y-280.45
X258.375Y-141.025
X260.0Y-260.1
X260.2Y-80.175
X260.2Y-108.5
X260.25Y-112.325
X260.35Y-258.125
X260.575Y-161.025
X260.625Y-85.6
X260.65Y-110.825
X261.9Y-119.575
X261.9Y-141.025
X261.95Y-162.325
X261.975Y-83.05
X262.05Y-73.25
X262.1Y-163.625
X262.125Y-70.7
X262.2Y-151.55
X262.225Y-89.475
X262.25Y-167.925
X262.375Y-92.325
X262.475Y-146.375
X263.1Y-112.0
X263.375Y-108.8
X263.975Y-79.575
X264.95Y-78.425
X265.2Y-31.625
X266.475Y-75.75
X268.338Y-27.638
X274.825Y-54.55
X276.85Y-273.2
X277.4Y-51.775
X278.575Y-340.575
X278.775Y-332.7
X278.85Y-339.075
X279.175Y-45.525
X279.275Y-47.9
X279.525Y-37.65
X279.834Y-331.166
X280.375Y-277.0
X280.55Y-349.375
X280.75Y-343.925
X281.825Y-335.775
X283.375Y-347.225
X283.575Y-46.625
X284.025Y-183.8
X284.1Y-278.325
X284.325Y-86.625
X284.45Y-342.05
X284.46Y-336.642
X284.575Y-54.45
X284.705Y-114.28
X285.45Y-344.4
X285.525Y-262.358
X285.7Y-334.25
X286.3Y-308.8
X286.375Y-230.0
X286.575Y-73.225
X286.588Y-111.549
X286.625Y-158.55
X286.925Y-152.05
X287.285Y-190.237
X287.3Y-266.85
X287.427Y-183.837
X287.45Y-35.5
X287.725Y-39.475
X287.75Y-37.75
X287.867Y-273.117
X287.971Y-189.379
X288.125Y-305.95
X288.8Y-20.15
X288.825Y-264.625
X288.867Y-260.208
X289.025Y-36.325
X290.0Y-24.975
X290.125Y-163.025
X290.425Y-116.968
X290.7Y-80.4
X290.7Y-158.9
X291.275Y-31.625
X291.425Y-27.775
X291.426Y-35.876
X292.45Y-34.825
X293.625Y-31.075
X293.675Y-29.8
X293.675Y-32.225
X293.775Y-33.525
X294.775Y-34.81
X294.979Y-28.256
X295.075Y-339.275
X295.85Y-342.475
X296.225Y-40.925
X296.45Y-20.35
X296.725Y-26.575
X297.025Y-143.75
X297.075Y-145.3
X297.1Y-148.975
X297.825Y-151.575
X300.193Y-36.744
X300.35Y-38.6
X301.125Y-42.925
X301.62Y-38.6
X304.0Y-42.475
X306.175Y-28.073
X306.175Y-36.875
X306.825Y-39.925
X306.825Y-40.925
X307.97Y-38.6
X309.25Y-42.125
X313.65Y-30.575
X313.775Y-21.0
X320.225Y-340.05
X320.875Y-78.65
X321.325Y-27.975
X321.725Y-27.1
X322.475Y-147.175
X322.5Y-192.775
X322.875Y-229.925
X323.45Y-112.258
X323.45Y-343.95
X323.675Y-268.775
X323.9Y-153.525
X324.075Y-158.1
X324.09Y-337.375
X324.225Y-32.85
X324.3Y-30.825
X324.325Y-91.6
X324.45Y-304.65
X324.475Y-222.175
X324.525Y-32.175
X324.55Y-186.7
X324.65Y-118.058
X324.725Y-109.075
X325.05Y-76.575
X325.55Y-262.25
X325.6Y-185.125
X327.5Y-158.6
X328.625Y-154.225
X329.475Y-339.925
X329.9Y-156.025
X330.35Y-78.525
X331.725Y-339.125
X331.825Y-83.35
X332.275Y-75.75
X332.55Y-77.875
X332.8Y-78.55
X332.85Y-340.925
X343.25Y-87.85
X357.725Y-146.575
X358.625Y-149.606
X358.975Y-183.625
X358.975Y-275.825
X359.2Y-153.933
X359.475Y-76.875
X359.525Y-119.55
X360.2Y-151.117
X360.275Y-154.175
X360.35Y-78.575
X360.675Y-118.529
X360.7Y-126.15
X360.85Y-263.254
X361.45Y-119.6
X361.65Y-268.9
X361.75Y-127.7
X361.9Y-125.475
X361.95Y-305.8
X361.975Y-339.034
X362.4Y-193.9
X363.004Y-299.31
X363.2Y-230.275
X363.25Y-224.696
X363.3Y-348.426
X363.65Y-81.258
X363.975Y-342.95
X364.175Y-232.875
X364.7Y-339.775
X365.075Y-342.7
X365.925Y-73.383
X366.275Y-182.675
X366.375Y-188.3
X366.7Y-87.5
X368.975Y-76.85
X368.975Y-339.725
X369.8Y-188.15
X370.55Y-190.4
X371.75Y-339.034
X373.0Y-340.475
X376.35Y-349.35
X381.65Y-158.425
X389.4Y-107.25
X390.15Y-111.175
X391.2Y-111.0
X391.65Y-107.35
X392.775Y-110.825
X393.55Y-114.875
X394.825Y-110.95
X396.075Y-110.75
X396.125Y-154.1
X396.875Y-296.45
X397.025Y-120.175
X397.625Y-124.7
X397.725Y-147.125
X398.0Y-151.871
X398.05Y-156.575
X398.175Y-81.575
X398.225Y-149.69
X398.25Y-155.321
X398.25Y-319.025
X398.3Y-76.225
X398.4Y-123.375
X398.425Y-306.775
X398.55Y-185.654
X398.8Y-231.15
X399.2Y-150.3
X399.215Y-337.608
X399.25Y-266.125
X399.375Y-343.325
X399.4Y-120.725
X399.45Y-77.15
X399.475Y-85.05
X399.6Y-296.8
X399.89Y-222.054
X399.89Y-224.15
X400.525Y-192.45
X400.625Y-226.375
X401.3Y-291.725
X401.675Y-147.325
X402.35Y-222.825
X402.6Y-273.55
X402.925Y-276.15
X403.125Y-293.475
X403.8Y-77.425
X404.1Y-154.4
X404.1Y-291.625
X404.65Y-112.575
X404.7Y-226.3
X405.45Y-111.925
X405.925Y-118.85
X406.05Y-225.175
X408.05Y-295.4
X409.0Y-118.625
X409.05Y-227.425
X409.4Y-229.6
X409.925Y-229.125
X410.325Y-297.675
X411.5Y-155.825
X413.45Y-121.475
X415.8Y-171.175
X416.525Y-125.3
X416.65Y-150.925
X417.9Y-331.975
X418.4Y-222.875
X419.05Y-127.45
X422.875Y-151.3
X426.225Y-225.339
X426.976Y-140.749
X428.575Y-185.275
X428.7Y-161.95
X428.9Y-186.85
X430.25Y-137.875
X430.3Y-183.0
X432.225Y-144.2
X432.3Y-305.75
X432.7Y-187.9
X432.7Y-295.325
X432.75Y-341.0
X433.025Y-338.95
X433.825Y-149.55
X434.475Y-346.225
X435.3Y-188.775
X435.525Y-226.85
X435.725Y-193.3
X435.825Y-151.646
X436.175Y-156.475
X436.475Y-224.358
X436.875Y-123.675
X436.95Y-344.225
X437.265Y-337.35
X437.275Y-191.975
X437.349Y-193.302
X437.425Y-267.325
X437.475Y-306.383
X437.5Y-230.076
X437.625Y-81.475
X437.75Y-126.75
X437.875Y-345.85
X438.14Y-299.783
X438.34Y-260.825
X438.475Y-119.975
X438.75Y-228.0
X438.909Y-194.3
X439.025Y-225.75
X439.075Y-150.325
X439.251Y-149.545
X440.275Y-187.175
X440.45Y-123.65
X441.25Y-193.65
X441.65Y-260.55
X441.85Y-318.425
X441.9Y-311.375
X443.025Y-190.85
X443.125Y-227.15
X443.25Y-225.725
X444.225Y-165.225
X445.75Y-167.0
X446.094Y-165.969
X446.65Y-235.725
X447.45Y-152.275
X448.25Y-309.975
X448.925Y-134.7
X451.2Y-161.15
X452.187Y-158.179
X452.3Y-151.175
X452.725Y-246.4
X453.075Y-243.925
X453.875Y-159.825
X453.9Y-309.125
X454.275Y-243.025
X454.388Y-227.463
X455.65Y-226.1
X456.175Y-105.775
X456.175Y-112.75
X457.0Y-297.6
X457.15Y-308.425
X457.3Y-113.85
X457.3Y-262.075
X457.883Y-244.917
X457.925Y-119.3
X458.075Y-165.7
X458.099Y-149.525
X458.225Y-199.45
X458.35Y-234.375
X458.575Y-195.55
X458.6Y-112.7
X458.699Y-144.701
X458.7Y-153.525
X458.85Y-241.25
X458.85Y-245.8
X458.85Y-264.35
X458.9Y-185.92
X458.975Y-243.325
X459.125Y-119.85
X459.15Y-118.925
X459.2Y-273.125
X459.45Y-109.625
X459.5Y-221.4
X459.575Y-223.125
X459.65Y-154.725
X459.775Y-232.45
X459.9Y-117.375
X459.925Y-152.375
X459.95Y-145.95
X460.0Y-107.1
X460.2Y-162.175
X460.225Y-278.025
X460.35Y-195.7
X460.374Y-110.35
X460.375Y-260.175
X460.375Y-267.4
X460.425Y-261.525
X460.55Y-272.7
X460.625Y-258.7
X460.775Y-111.1
X460.825Y-305.375
X460.9Y-298.25
X460.9Y-299.52
X460.913Y-183.98
X460.913Y-189.06
X460.913Y-190.312
X460.913Y-192.924
X461.0Y-233.45
X461.025Y-273.45
X461.025Y-275.4
X461.125Y-235.125
X461.301Y-220.85
X461.301Y-222.12
X461.301Y-224.66
X461.301Y-225.93
X461.6Y-229.275
X461.725Y-306.6
X461.78Y-116.212
X461.8Y-269.98
X461.8Y-271.25
X461.825Y-192.925
X461.85Y-268.85
X462.3Y-303.304
X462.35Y-300.79
X462.428Y-302.104
X462.725Y-278.1
X462.775Y-118.025
X462.85Y-115.025
X462.875Y-273.325
X462.887Y-190.912
X462.964Y-220.85
X463.0Y-160.275
X463.0Y-262.375
X463.05Y-264.975
X463.062Y-271.24
X463.125Y-198.35
X463.2Y-266.4
X463.212Y-307.937
X463.25Y-228.5
X463.251Y-147.4
X463.4Y-259.625
X463.6Y-303.75
X463.65Y-192.875
X463.925Y-191.626
X464.1Y-299.175
X464.2Y-117.575
X464.35Y-255.925
X464.4Y-266.475
X464.4Y-274.25
X464.475Y-264.8
X464.55Y-109.525
X464.65Y-185.975
X464.825Y-189.525
X464.9Y-143.025
X465.075Y-188.724
X465.325Y-265.175
X465.325Y-279.3
X465.501Y-144.474
X465.59Y-110.5
X465.625Y-154.562
X465.925Y-271.275
X466.025Y-273.625
X466.05Y-150.675
X466.075Y-269.65
X466.092Y-151.566
X466.175Y-233.15
X466.175Y-254.2
X466.324Y-298.25
X466.324Y-299.52
X466.337Y-186.52
X466.425Y-153.625
X466.7Y-230.145
X466.725Y-222.12
X466.725Y-223.39
X466.725Y-224.66
X466.86Y-110.788
X466.95Y-263.8
X467.375Y-196.525
X467.451Y-113.826
X467.5Y-252.525
X467.509Y-109.622
X467.581Y-156.519
X467.8Y-215.975
X468.5Y-114.55
X469.1Y-112.175
X469.325Y-143.575
X469.4Y-116.212
X469.425Y-182.05
X469.5Y-293.8
X470.138Y-149.975
X470.595Y-115.112
X470.67Y-110.788
X470.75Y-150.775
X470.75Y-155.855
X471.15Y-180.75
X471.55Y-254.825
X472.175Y-134.775
X472.25Y-138.075
X472.25Y-145.5
X472.25Y-148.95
X472.275Y-144.425
X472.3Y-143.325
X472.45Y-153.1
X472.456Y-139.95
X472.456Y-147.025
X472.462Y-268.64
X472.85Y-141.825
X473.275Y-137.352
X473.75Y-261.76
X474.876Y-115.525
X475.025Y-142.125
X475.25Y-138.5
X475.35Y-112.825
X475.37Y-110.737
X476.362Y-257.39
X476.374Y-260.225
X476.4Y-270.975
X476.675Y-268.575
X477.375Y-238.5
T3
X187.952Y-32.487
X187.977Y-19.587
X205.65Y-19.475
X205.675Y-32.515
X319.775Y-22.025
X319.775Y-24.565
X319.775Y-27.105
T4
X153.838Y-24.637
X158.838Y-24.637
M30
